<?xml version="1.0" encoding="utf-8"?>
<!-- Generator: Adobe Illustrator 16.0.0, SVG Export Plug-In . SVG Version: 6.00 Build 0)  -->
<!DOCTYPE svg PUBLIC "-//W3C//DTD SVG 1.1//EN" "http://www.w3.org/Graphics/SVG/1.1/DTD/svg11.dtd">
<svg version="1.1" xmlns="http://www.w3.org/2000/svg" xmlns:xlink="http://www.w3.org/1999/xlink" x="0px" y="0px" width="60px"
	 height="60px" viewBox="0 0 60 60" enable-background="new 0 0 60 60" xml:space="preserve">
<g id="Layer_1">
</g>
<g id="txt">
	<linearGradient id="SVGID_2_" gradientUnits="userSpaceOnUse" x1="30" y1="58.4277" x2="30" y2="6.3544">
		<stop  offset="0" style="stop-color:#477256"/>
		<stop  offset="1" style="stop-color:#135D6B"/>
	</linearGradient>
	<rect fill="url(#SVGID_2_)" width="60" height="60"/>
	<g>
		<path fill="#FFFFFF" d="M47.678,49.463c0,1.09-0.877,1.974-1.959,1.974H14.283c-1.084,0-1.961-0.884-1.961-1.974v-27.47
			c0-1.09,0.877-1.974,1.961-1.974h31.436c1.082,0,1.959,0.884,1.959,1.974V49.463z"/>
		<g>
			<g>
				<path fill="none" stroke="#293F54" stroke-width="0.5669" stroke-miterlimit="10" d="M45.686,48.728c0,0.553-0.447,1-1,1H15.123
					c-0.553,0-1-0.447-1-1v-26c0-0.552,0.447-1,1-1h29.563c0.553,0,1,0.448,1,1V48.728z"/>
				
					<line fill="none" stroke="#293F54" stroke-width="0.5669" stroke-miterlimit="10" x1="13.936" y1="28.665" x2="45.623" y2="28.665"/>
				<circle fill="#00B1CC" cx="16.686" cy="25.29" r="0.813"/>
				<circle fill="#00B1CC" cx="20.686" cy="25.29" r="0.813"/>
				<circle fill="#00B1CC" cx="24.686" cy="25.29" r="0.813"/>
				<circle fill="#293F54" cx="30.061" cy="25.29" r="0.5"/>
				<circle fill="#293F54" cx="32.586" cy="25.29" r="0.5"/>
				<circle fill="#293F54" cx="35.111" cy="25.29" r="0.5"/>
				<circle fill="#293F54" cx="37.637" cy="25.29" r="0.5"/>
				<circle fill="#293F54" cx="40.16" cy="25.29" r="0.5"/>
				<circle fill="#293F54" cx="42.686" cy="25.29" r="0.5"/>
			</g>
			<path fill="#00B1CC" d="M14.105,38.648"/>
			<g>
				<path id="XMLID_194_" fill="#FFC500" d="M32.033,34.095h-0.949c-0.266,0-0.484,0.217-0.484,0.483v0.948
					c0,0.268,0.219,0.483,0.484,0.483h0.949c0.266,0,0.482-0.216,0.482-0.483v-0.948C32.516,34.312,32.299,34.095,32.033,34.095z"/>
				<path id="XMLID_193_" fill="#FFC500" d="M35.762,34.095h-0.949c-0.268,0-0.482,0.217-0.482,0.483v0.948
					c0,0.268,0.215,0.483,0.482,0.483h0.949c0.268,0,0.482-0.216,0.482-0.483v-0.948C36.244,34.312,36.029,34.095,35.762,34.095z"/>
				<path id="XMLID_192_" fill="#FFC500" d="M39.49,34.095h-0.949c-0.266,0-0.482,0.217-0.482,0.483v0.948
					c0,0.268,0.217,0.483,0.482,0.483h0.949c0.268,0,0.484-0.216,0.484-0.483v-0.948C39.975,34.312,39.758,34.095,39.49,34.095z"/>
				<g id="XMLID_188_">
					<path id="XMLID_191_" fill="#FFC500" d="M32.033,37.457h-0.949c-0.266,0-0.484,0.216-0.484,0.483v0.947
						c0,0.268,0.219,0.484,0.484,0.484h0.949c0.266,0,0.482-0.217,0.482-0.484V37.94C32.516,37.673,32.299,37.457,32.033,37.457z"/>
					<path id="XMLID_190_" fill="#FFC500" d="M35.762,37.457h-0.949c-0.268,0-0.482,0.216-0.482,0.483v0.947
						c0,0.268,0.215,0.484,0.482,0.484h0.949c0.268,0,0.482-0.217,0.482-0.484V37.94C36.244,37.673,36.029,37.457,35.762,37.457z"/>
					<path id="XMLID_189_" fill="#FFC500" d="M39.49,37.457h-0.949c-0.266,0-0.482,0.216-0.482,0.483v0.947
						c0,0.268,0.217,0.484,0.482,0.484h0.949c0.268,0,0.484-0.217,0.484-0.484V37.94C39.975,37.673,39.758,37.457,39.49,37.457z"/>
				</g>
				<path id="XMLID_187_" fill="#FFC500" d="M32.033,40.799h-0.949c-0.266,0-0.484,0.216-0.484,0.483v0.948
					c0,0.267,0.219,0.483,0.484,0.483h0.949c0.266,0,0.482-0.217,0.482-0.483v-0.948C32.516,41.015,32.299,40.799,32.033,40.799z"/>
				<path id="XMLID_186_" fill="#FFC500" d="M35.762,40.799h-0.949c-0.268,0-0.482,0.216-0.482,0.483v0.948
					c0,0.267,0.215,0.483,0.482,0.483h0.949c0.268,0,0.482-0.217,0.482-0.483v-0.948C36.244,41.015,36.029,40.799,35.762,40.799z"/>
				<path id="XMLID_185_" fill="#FFC500" d="M39.49,40.799h-0.949c-0.266,0-0.482,0.216-0.482,0.483v0.948
					c0,0.267,0.217,0.483,0.482,0.483h0.949c0.268,0,0.484-0.217,0.484-0.483v-0.948C39.975,41.015,39.758,40.799,39.49,40.799z"/>
				<path fill="#FFC500" d="M28.684,42.027c0,0.525-0.426,0.952-0.953,0.952h-6.979c-0.527,0-0.953-0.427-0.953-0.952v-6.98
					c0-0.525,0.426-0.952,0.953-0.952h6.979c0.527,0,0.953,0.427,0.953,0.952V42.027z"/>
			</g>
			<g>
				<path fill="#FFFFFF" d="M36.939,39.651c-0.125-0.472-0.293-1.426,0.445-1.448c0.58-0.017,0.857,0.839,1.012,1.267
					c0.043-0.976,0.047-1.938,0.039-2.914c-0.004-0.569,0.334-2.44,1.031-1.227c0.262,0.456,0.16,1.188,0.094,1.682
					c0.387-0.186,0.855,0.011,1.045,0.386c0.613-0.178,1.166,0.038,1.291,0.695c1.59-0.086,1.012,2.002,0.373,2.778
					c-0.971,1.181-2.156,3.036-3.396,2.368c-0.598-0.321-1.729-3.021-1.977-3.628"/>
				<g>
					<g>
						<g>
							<g>
								<g>
									<g>
										<path fill="#293F54" d="M39.605,38.634c-0.104,0-0.188-0.084-0.188-0.188v-1.426c0-0.104,0.084-0.188,0.188-0.188h0.559
											c0.412,0,0.746,0.335,0.746,0.746c0,0.104-0.084,0.188-0.188,0.188s-0.188-0.084-0.188-0.188
											c0-0.204-0.166-0.371-0.371-0.371h-0.371v1.238C39.793,38.55,39.709,38.634,39.605,38.634z"/>
									</g>
								</g>
							</g>
						</g>
						<g>
							<g>
								<g>
									<g>
										<path fill="#293F54" d="M42.27,43.458h-2.398c-0.104,0-0.188-0.084-0.188-0.188s0.084-0.188,0.188-0.188h2.246
											c0.027-0.109,0.07-0.27,0.129-0.451c0.316-0.983,0.49-2.013,0.518-3.062c0.002-0.104,0.092-0.189,0.191-0.182
											c0.104,0.002,0.186,0.089,0.184,0.192c-0.027,1.083-0.209,2.148-0.535,3.166c-0.102,0.312-0.15,0.558-0.15,0.56
											C42.436,43.396,42.359,43.458,42.27,43.458z"/>
									</g>
								</g>
							</g>
						</g>
						<g>
							<g>
								<g>
									<g>
										<path fill="#293F54" d="M38.688,43.458c-0.09,0-0.168-0.063-0.184-0.154c-0.002-0.011-0.182-0.998-0.822-1.713
											c-0.178-0.197-0.344-0.427-0.498-0.684c-0.357-0.598-0.545-1.289-0.545-2.001c0-0.469,0.381-0.85,0.85-0.85
											c0.348,0,0.666,0.219,0.791,0.545l0.023,0.057v-3.12c0-0.411,0.334-0.746,0.746-0.746c0.41,0,0.744,0.335,0.744,0.746
											v1.482c0,0.104-0.084,0.188-0.188,0.188s-0.188-0.084-0.188-0.188v-1.482c0-0.204-0.166-0.37-0.369-0.37
											c-0.205,0-0.371,0.166-0.371,0.37v4.132c0,0.091-0.064,0.168-0.154,0.185c-0.088,0.017-0.176-0.032-0.209-0.117
											l-0.385-1.001c-0.07-0.182-0.248-0.304-0.441-0.304c-0.262,0-0.475,0.213-0.475,0.474c0,0.644,0.17,1.27,0.492,1.809
											c0.143,0.236,0.295,0.446,0.455,0.625c0.713,0.798,0.904,1.854,0.912,1.898c0.018,0.103-0.051,0.199-0.152,0.217
											C38.711,43.458,38.699,43.458,38.688,43.458z"/>
									</g>
								</g>
							</g>
						</g>
						<g>
							<g>
								<g>
									<g>
										<path fill="#293F54" d="M41.838,39.535c-0.104,0-0.188-0.084-0.188-0.188v-1.351c0-0.204-0.166-0.37-0.371-0.37H40.91
											v1.237c0,0.104-0.084,0.188-0.188,0.188s-0.188-0.084-0.188-0.188v-1.426c0-0.104,0.084-0.188,0.188-0.188h0.557
											c0.412,0,0.746,0.334,0.746,0.746v1.351C42.025,39.451,41.941,39.535,41.838,39.535z"/>
									</g>
								</g>
							</g>
						</g>
						<g>
							<g>
								<g>
									<g>
										<path fill="#293F54" d="M42.955,39.764c-0.104,0-0.188-0.084-0.188-0.188v-0.868c0-0.204-0.166-0.37-0.371-0.37h-0.559
											c-0.104,0-0.188-0.084-0.188-0.188s0.084-0.188,0.188-0.188h0.559c0.412,0,0.746,0.334,0.746,0.745v0.868
											C43.143,39.68,43.059,39.764,42.955,39.764z"/>
									</g>
								</g>
							</g>
						</g>
					</g>
					<g>
						<g>
							<g>
								<g>
									<path fill="#293F54" d="M42.578,45.926H38.25c-0.104,0-0.188-0.084-0.188-0.188v-1.718c0-0.104,0.084-0.188,0.188-0.188
										h4.328c0.104,0,0.188,0.084,0.188,0.188v1.718C42.766,45.842,42.682,45.926,42.578,45.926z M38.438,45.551h3.953v-1.342
										h-3.953V45.551z"/>
								</g>
							</g>
						</g>
					</g>
					<g>
						<g>
							<g>
								<g>
									<path fill="#293F54" d="M41.615,45.229c-0.191,0-0.35-0.157-0.35-0.35s0.158-0.35,0.35-0.35c0.193,0,0.35,0.157,0.35,0.35
										S41.809,45.229,41.615,45.229z M41.615,44.854c-0.014,0-0.025,0.012-0.025,0.026c0,0.028,0.051,0.028,0.051,0
										C41.641,44.865,41.631,44.854,41.615,44.854z"/>
								</g>
							</g>
						</g>
					</g>
				</g>
			</g>
		</g>
	</g>
	<path fill="#98C020" d="M29.011,7.008c0.309,0,0.575-0.107,0.8-0.324c0.199-0.191,0.304-0.392,0.313-0.6
		c0.009-0.141-0.046-0.281-0.163-0.418c-0.116-0.138-0.263-0.206-0.437-0.206c-0.3,0-0.573,0.1-0.819,0.3
		c-0.244,0.199-0.372,0.407-0.38,0.624C28.308,6.8,28.536,7.008,29.011,7.008z"/>
	<path fill="#FFFFFF" d="M37.515,11.228l-0.14-0.185c-0.095,0.108-0.214,0.225-0.361,0.348c-0.179,0.147-0.302,0.222-0.37,0.222
		c-0.094,0-0.154-0.02-0.178-0.06c-0.024-0.039-0.035-0.11-0.029-0.214c0-0.039,0.03-0.191,0.092-0.455
		c0.062-0.263,0.095-0.464,0.101-0.602c0.004-0.202-0.033-0.358-0.111-0.466C36.414,9.684,36.241,9.627,36,9.646
		c-0.281,0.025-0.574,0.136-0.88,0.333c-0.128,0.084-0.251,0.183-0.37,0.296c0.213-0.89,0.321-1.497,0.326-1.824
		c0.005-0.483-0.194-0.733-0.599-0.748c-0.458-0.016-0.794,0.243-1.006,0.776c0.089-0.04,0.174-0.06,0.251-0.06
		c0.064,0,0.131,0.04,0.2,0.118c0.103,0.124,0.146,0.313,0.125,0.57c-0.014,0.188-0.059,0.591-0.134,1.207
		c-0.016,0.154-0.032,0.296-0.046,0.428c-0.029,0.021-0.057,0.042-0.088,0.063c-0.374,0.249-0.716,0.374-1.022,0.374
		c-0.408,0-0.608-0.153-0.6-0.461c0.017-0.534,0.107-1.233,0.274-2.099h0.887c0.067,0,0.101-0.029,0.101-0.088l0.11-0.536
		c0.018-0.084-0.019-0.125-0.11-0.125h-0.837c0.199-0.949,0.337-1.607,0.411-1.974c0.017-0.066-0.033-0.1-0.148-0.1
		c-0.219,0-0.501,0.092-0.85,0.274c-0.375,0.2-0.58,0.4-0.612,0.6l-0.2,1.199h-0.513c-0.066,0-0.104,0.029-0.112,0.087l-0.112,0.537
		c-0.017,0.084,0.021,0.125,0.112,0.125h0.514c-0.126,0.723-0.222,1.32-0.285,1.796c-0.124,0.124-0.266,0.254-0.428,0.39
		c-0.299,0.249-0.507,0.374-0.623,0.374c-0.268,0-0.396-0.179-0.389-0.537c0.125-0.782,0.242-1.427,0.35-1.935
		c0.033-0.3-0.015-0.544-0.144-0.731c-0.129-0.187-0.33-0.269-0.604-0.243c-0.176,0.017-0.441,0.184-0.8,0.5
		c-0.266,0.241-0.533,0.482-0.8,0.724l0.288,0.338c0.232-0.176,0.374-0.263,0.424-0.263c0.15,0,0.225,0.108,0.225,0.324
		c0,0.042-0.081,0.351-0.243,0.924c-0.041,0.146-0.077,0.282-0.108,0.409c-0.375,0.26-0.856,0.531-1.446,0.815
		c0.301-0.991,0.466-1.915,0.499-2.772c0.026-0.69-0.282-1.045-0.923-1.062c-0.774-0.024-1.282,0.408-1.523,1.299
		c0.135-0.058,0.274-0.087,0.418-0.087c0.118,0,0.215,0.047,0.292,0.143c0.075,0.097,0.109,0.207,0.102,0.331
		c-0.009,0.325-0.175,0.673-0.497,1.043c-0.323,0.371-0.61,0.557-0.862,0.557c-0.176,0-0.261-0.15-0.252-0.45
		c0.009-0.158,0.063-0.479,0.162-0.962c0.091-0.457,0.137-0.766,0.137-0.924c0-0.274-0.07-0.497-0.211-0.668
		c-0.142-0.171-0.347-0.244-0.612-0.219c-0.184,0.017-0.454,0.184-0.812,0.5c-0.267,0.241-0.532,0.482-0.8,0.724l0.287,0.338
		c0.233-0.176,0.376-0.263,0.425-0.263c0.158,0,0.233,0.108,0.225,0.324c0,0.018-0.074,0.279-0.225,0.787
		c-0.149,0.508-0.228,0.887-0.236,1.137c-0.017,0.342,0.046,0.604,0.188,0.786c0.174,0.225,0.467,0.32,0.876,0.287
		c0.485-0.033,0.97-0.212,1.455-0.537c0.201-0.133,0.393-0.287,0.576-0.462c-0.066,0.333-0.146,0.616-0.236,0.85
		c-0.9,0.408-1.549,0.758-1.948,1.049c-0.566,0.407-0.87,0.845-0.911,1.311c-0.076,0.808,0.332,1.212,1.223,1.212
		c0.6,0,1.179-0.366,1.736-1.1c0.475-0.623,0.887-1.456,1.236-2.497c0.605-0.3,1.116-0.594,1.535-0.882
		c-0.014,0.097-0.022,0.183-0.024,0.258c-0.009,0.267,0.057,0.482,0.193,0.649c0.138,0.167,0.335,0.25,0.594,0.25
		c0.557,0,1.116-0.242,1.674-0.725c0.162-0.143,0.31-0.292,0.444-0.448c-0.007,0.107-0.01,0.199-0.009,0.273
		c0.009,0.6,0.358,0.899,1.05,0.899c0.565,0,1.174-0.242,1.823-0.725c0.089-0.065,0.17-0.13,0.248-0.194c0,0.003,0,0.007,0,0.01
		c-0.01,0.237,0.045,0.425,0.162,0.563c0.148,0.167,0.389,0.246,0.725,0.237c-0.044-0.104-0.062-0.297-0.051-0.577
		c0.009-0.32,0.121-0.624,0.334-0.909c0.193-0.262,0.373-0.392,0.537-0.392c0.108,0,0.158,0.091,0.148,0.273
		c-0.006,0.118-0.034,0.289-0.086,0.514c-0.051,0.224-0.079,0.417-0.085,0.58c-0.005,0.158,0.034,0.286,0.115,0.384
		c0.081,0.1,0.197,0.148,0.351,0.148c0.33,0,0.66-0.143,0.991-0.429C37.188,11.726,37.377,11.488,37.515,11.228z M23.642,14.039
		c-0.134,0-0.195-0.059-0.187-0.175c0.016-0.217,0.39-0.504,1.122-0.862C24.195,13.693,23.884,14.039,23.642,14.039z"/>
</g>
</svg>
